<svg width="822" height="639" viewBox="0 0 822 639" fill="none" xmlns="http://www.w3.org/2000/svg">
<path d="M609.002 363.148L445.737 160.106C438.366 166.854 429.216 171.409 419.303 173.35C388.548 179.339 358.555 158.503 352.286 126.701C347.88 104.263 356.437 82.3305 372.704 69.2555L317.125 0L0 269.852L291.877 633L609.002 363.148Z" fill="white"/>
<path d="M524.785 60.7966C531.711 60.7966 537.325 55.178 537.325 48.2472C537.325 41.3164 531.711 35.6978 524.785 35.6978C517.86 35.6978 512.246 41.3164 512.246 48.2472C512.246 55.178 517.86 60.7966 524.785 60.7966Z" stroke="#090736" stroke-width="2" stroke-miterlimit="10"/>
<path d="M689.999 424.559C696.924 424.559 702.538 418.94 702.538 412.009C702.538 405.078 696.924 399.46 689.999 399.46C683.074 399.46 677.459 405.078 677.459 412.009C677.459 418.94 683.074 424.559 689.999 424.559Z" stroke="#090736" stroke-width="2" stroke-miterlimit="10"/>
<path d="M144.625 92.17C151.55 92.17 157.165 86.5514 157.165 79.6206C157.165 72.6898 151.55 67.0713 144.625 67.0713C137.7 67.0713 132.086 72.6898 132.086 79.6206C132.086 86.5514 137.7 92.17 144.625 92.17Z" stroke="#090736" stroke-width="2" stroke-miterlimit="10"/>
<path d="M406.171 164.498C431.579 164.498 452.176 143.884 452.176 118.456C452.176 93.0272 431.579 72.4132 406.171 72.4132C380.763 72.4132 360.165 93.0272 360.165 118.456C360.165 143.884 380.763 164.498 406.171 164.498Z" fill="white"/>
<path d="M132.933 92.7635H336.781C357.03 92.7635 374.568 106.839 379.059 126.596L482.084 583.8C486.32 602.709 474.459 621.448 455.65 625.688C453.701 626.112 451.668 626.366 449.635 626.535L240.025 636.88C216.811 637.983 196.392 621.787 192.241 598.893L133.78 275.577L129.459 276.849L118.276 215.544L122.766 214.442L106.414 124.222C103.788 109.722 113.446 95.8161 127.934 93.1875C129.629 92.8483 131.239 92.7635 132.933 92.7635Z" fill="#090736"/>
<path d="M309.923 102.6H333.731C347.795 102.6 359.996 112.436 362.961 126.172L461.835 579.73C464.038 589.735 457.683 599.656 447.686 601.861C446.754 602.03 445.907 602.2 444.975 602.285L236.043 616.021C223.843 616.784 212.998 608.305 210.795 596.264L126.409 127.529C124.376 116.082 131.917 105.143 143.354 103.023C144.625 102.769 145.811 102.684 147.082 102.684H169.619C174.109 102.684 178.007 105.737 179.193 110.061C180.21 113.877 183.683 116.59 187.665 116.59H294.842C302.806 116.421 309.33 110.4 309.923 102.6Z" fill="#6C63FF"/>
<path d="M376.432 219.868H160.299V220.971H376.432V219.868Z" fill="#2F2E41"/>
<path d="M384.989 254.464H166.738V255.566H384.989V254.464Z" fill="#2F2E41"/>
<path d="M174.025 218.172L178.939 211.559L178.007 210.965L173.771 216.646L157.419 203.249L156.741 204.012L174.025 218.172Z" fill="#2F2E41"/>
<path d="M202.238 372.665L207.152 366.136L206.305 365.458L201.984 371.139L185.632 357.742L184.954 358.59L202.238 372.665Z" fill="#2F2E41"/>
<path d="M408.939 372.736L182.685 377.531L182.708 378.633L408.963 373.838L408.939 372.736Z" fill="#2F2E41"/>
<path d="M415.857 404.159L185.305 409.488L185.331 410.59L415.882 405.261L415.857 404.159Z" fill="#2F2E41"/>
<path opacity="0.1" d="M274.508 495.021C274.508 523.003 297.13 545.643 325.089 545.643C353.048 545.643 375.67 523.003 375.67 495.021C375.67 494.428 375.67 493.75 375.67 493.156C374.653 465.259 351.184 443.383 323.225 444.485C296.028 445.502 274.508 467.803 274.508 495.021Z" fill="black"/>
<path opacity="0.1" d="M279.338 514.778C279.338 515.372 279.338 516.05 279.338 516.644C291.284 541.912 321.446 552.766 346.694 540.81C364.401 532.415 375.67 514.609 375.67 495.022C375.67 494.428 375.67 493.75 375.67 493.156C363.724 467.888 333.562 457.034 308.314 468.99C290.606 477.3 279.338 495.191 279.338 514.778Z" fill="black"/>
<path d="M587.143 230.383C604.362 230.383 618.322 216.412 618.322 199.179C618.322 181.945 604.362 167.975 587.143 167.975C569.923 167.975 555.964 181.945 555.964 199.179C555.964 216.412 569.923 230.383 587.143 230.383Z" fill="#090736"/>
<path d="M620.779 590.244L626.709 615.682H612.306L606.375 586.852L620.779 590.244Z" fill="#9F616A"/>
<path d="M551.304 590.244V613.986L536.901 615.682V590.244H551.304Z" fill="#9F616A"/>
<path d="M625.015 320.602C625.015 320.602 623.32 357.063 621.626 359.607C619.931 362.151 604.681 398.612 604.681 398.612L597.056 374.87C597.056 374.87 608.917 355.367 607.223 344.344C605.528 333.321 606.63 319.754 606.63 319.754L625.015 320.602Z" fill="#9F616A"/>
<path d="M576.722 232.418C589.824 232.418 600.445 221.788 600.445 208.676C600.445 195.563 589.824 184.934 576.722 184.934C563.62 184.934 552.999 195.563 552.999 208.676C552.999 221.788 563.62 232.418 576.722 232.418Z" fill="#9F616A"/>
<path d="M596.208 211.219C596.208 211.219 595.361 245.137 601.292 250.224C607.223 255.312 567.402 251.072 567.402 251.072C567.402 251.072 575.874 227.33 569.096 222.242C562.318 217.155 596.208 211.219 596.208 211.219Z" fill="#9F616A"/>
<path d="M564.86 249.376C564.86 249.376 569.944 240.049 576.722 240.897C583.5 241.745 605.528 243.441 606.375 245.137C607.223 246.832 609.764 252.768 611.459 254.464C613.153 256.16 625.862 258.703 626.709 268.879C627.557 279.054 596.208 340.953 596.208 340.953C596.208 340.953 600.445 355.367 599.597 358.759C598.75 362.151 603.834 372.326 602.986 376.566C602.139 380.805 615.695 406.243 608.917 439.312V492.732C608.917 492.732 631.793 585.156 625.015 591.94C618.237 598.723 595.361 594.484 591.125 591.94C586.889 589.396 569.096 461.359 569.096 461.359L560.624 418.114L559.777 513.082C559.777 513.082 561.471 592.788 555.541 595.332C549.61 597.875 526.734 598.723 525.04 593.636C523.684 589.65 517.245 484.083 514.449 437.786C513.517 421.845 514.703 405.819 518.177 390.133C521.735 374.107 526.819 355.283 532.665 347.651C543.679 333.236 550.457 287.448 550.457 287.448L536.054 261.162C536.054 261.162 544.526 252.683 549.61 252.683C554.693 252.683 564.86 249.376 564.86 249.376Z" fill="#090736"/>
<path d="M621.626 262.943L626.116 265.996C626.116 265.996 629.251 320.602 626.709 323.994C624.168 327.386 606.46 325.69 605.189 322.722C603.918 319.754 621.626 262.943 621.626 262.943Z" fill="#090736"/>
<path d="M546.051 312.547C548.508 329.76 550.711 345.107 538.002 358.929C525.294 373.004 510.891 385.384 495.216 396.068C493.691 400.223 470.816 430.494 469.63 418.369C468.443 406.243 476.323 396.831 487.591 386.571C498.86 376.311 514.449 354.18 523.345 342.055C532.241 329.93 528.513 322.298 528.259 312.123C528.005 301.948 542.578 312.717 546.051 312.547Z" fill="#9F616A"/>
<path d="M536.901 600.25C536.901 600.25 536.054 609.746 533.512 612.29C530.97 614.834 524.192 618.226 525.04 627.553C525.887 636.88 531.394 637.304 531.394 637.304L530.97 635.184L533.512 636.032L533.936 637.304H557.659C557.659 637.304 558.082 628.401 557.235 624.161C556.388 619.922 556.388 599.571 553.846 600.419C551.304 601.267 544.526 602.115 542.832 605.507C541.137 608.898 536.054 607.711 536.901 600.25Z" fill="#090736"/>
<path d="M623.32 600.25C623.32 600.25 624.168 609.746 626.709 612.29C629.251 614.834 636.029 618.226 635.182 627.553C634.334 636.88 628.827 637.304 628.827 637.304L629.251 635.184L626.709 636.032L626.286 637.304H602.563C602.563 637.304 602.139 628.401 602.986 624.161C603.834 619.922 603.834 599.571 606.375 600.419C608.917 601.267 615.695 602.115 617.39 605.507C619.084 608.898 624.168 607.711 623.32 600.25Z" fill="#090736"/>
<path d="M547.915 258.703L536.054 261.247C536.054 261.247 536.054 279.902 532.665 287.533C529.276 295.164 523.345 312.971 525.887 313.819C528.429 314.667 552.151 326.538 553.846 319.754C555.54 312.971 559.777 258.703 547.915 258.703Z" fill="#090736"/>
<path d="M620.863 189.343C638.083 189.343 652.042 175.372 652.042 158.139C652.042 140.906 638.083 126.935 620.863 126.935C603.644 126.935 589.685 140.906 589.685 158.139C589.685 175.372 603.644 189.343 620.863 189.343Z" fill="#090736"/>
<path d="M647.806 183.916C633.826 194.006 614.34 190.869 604.257 176.878C602.224 173.995 600.614 170.858 599.682 167.466C601.8 184.594 617.39 196.72 634.504 194.515C651.618 192.395 663.734 176.793 661.531 159.665C661.277 157.969 660.938 156.273 660.515 154.662C661.87 166.109 657.041 177.302 647.806 183.916Z" fill="#090736"/>
<path d="M595.446 227.245C608.08 227.245 618.322 216.995 618.322 204.351C618.322 191.707 608.08 181.457 595.446 181.457C582.812 181.457 572.57 191.707 572.57 204.351C572.57 216.995 582.812 227.245 595.446 227.245Z" fill="#090736"/>
<path d="M576.213 211.643C587.397 211.643 596.463 204.544 596.463 195.787C596.463 187.03 587.397 179.931 576.213 179.931C565.03 179.931 555.964 187.03 555.964 195.787C555.964 204.544 565.03 211.643 576.213 211.643Z" fill="#090736"/>
<path d="M570.791 218.851C572.897 218.851 574.604 215.814 574.604 212.067C574.604 208.321 572.897 205.284 570.791 205.284C568.685 205.284 566.978 208.321 566.978 212.067C566.978 215.814 568.685 218.851 570.791 218.851Z" fill="#A0616A"/>
</svg>
