<?xml version="1.0" encoding="utf-8"?>
<!-- Generator: Adobe Illustrator 23.0.3, SVG Export Plug-In . SVG Version: 6.00 Build 0)  -->
<svg version="1.1" id="Layer_1" xmlns="http://www.w3.org/2000/svg" xmlns:xlink="http://www.w3.org/1999/xlink" x="0px" y="0px"
	 viewBox="0 0 84.6 84.6" style="enable-background:new 0 0 84.6 84.6;" xml:space="preserve">
<style type="text/css">
	.st0{fill:#FCFCFC;}
</style>
<g>
	<g>
		<g>
			<g>
				<g>
					<path class="st0" d="M42.3,84.6c-1.1,0-2-0.9-2-2V51.1c0-1.1,0.9-2,2-2s2,0.9,2,2v31.5C44.3,83.7,43.4,84.6,42.3,84.6z"/>
				</g>
			</g>
		</g>
		<g>
			<g>
				<g>
					<path class="st0" d="M42.3,53.1c-6,0-10.8-4.8-10.8-10.8s4.8-10.8,10.8-10.8s10.8,4.9,10.8,10.8C53.1,48.2,48.2,53.1,42.3,53.1
						z M42.3,35.5c-3.7,0-6.8,3-6.8,6.8c0,3.7,3,6.8,6.8,6.8s6.8-3,6.8-6.8C49.1,38.5,46,35.5,42.3,35.5z"/>
				</g>
			</g>
		</g>
		<g>
			<g>
				<g>
					<path class="st0" d="M56.1,58.1c-0.5,0-1-0.2-1.4-0.6c-0.8-0.8-0.8-2,0-2.8c6.8-6.8,6.8-18,0-24.8s-18-6.8-24.8,0
						s-6.8,18,0,24.8c0.8,0.8,0.8,2.1,0,2.8s-2,0.8-2.8,0c-8.4-8.4-8.4-22.1,0-30.5c8.4-8.4,22.1-8.4,30.5,0
						c8.4,8.4,8.4,22.1,0,30.5C57.1,57.9,56.6,58.1,56.1,58.1z"/>
				</g>
			</g>
		</g>
		<g>
			<g>
				<g>
					<path class="st0" d="M20.9,65.7c-0.5,0-1-0.2-1.4-0.6C13.4,59,10,50.9,10,42.3s3.4-16.7,9.4-22.8c6.1-6.1,14.2-9.4,22.8-9.4
						S59,13.4,65,19.5c6.1,6.1,9.4,14.2,9.4,22.8S71.1,59,65,65.1c-0.8,0.8-2.1,0.8-2.8,0s-0.8-2.1,0-2.8c5.3-5.3,8.3-12.4,8.3-20
						s-2.9-14.6-8.3-20s-12.4-8.3-20-8.3s-14.6,2.9-20,8.3C17,27.7,14,34.7,14,42.3s2.9,14.6,8.3,20c0.8,0.8,0.8,2.1,0,2.8
						C21.9,65.5,21.4,65.7,20.9,65.7z"/>
				</g>
			</g>
		</g>
		<g>
			<g>
				<g>
					<path class="st0" d="M70.8,72.8c-0.5,0-1-0.2-1.4-0.6c-0.8-0.8-0.8-2.1,0-2.8c14.9-14.9,14.9-39.2,0-54.2s-39.2-14.9-54.2,0
						s-14.9,39.2,0,54.2c0.8,0.8,0.8,2.1,0,2.8s-2,0.8-2.8,0c-16.5-16.5-16.5-43.3,0-59.8s43.3-16.5,59.8,0s16.5,43.3,0,59.8
						C71.8,72.6,71.3,72.8,70.8,72.8z"/>
				</g>
			</g>
		</g>
	</g>
</g>
</svg>
